<?xml version="1.0" encoding="UTF-8" standalone="no"?>
<!DOCTYPE svg PUBLIC "-//W3C//DTD SVG 1.1//EN"
 "http://www.w3.org/Graphics/SVG/1.1/DTD/svg11.dtd">
<!-- Generated by graphviz version 2.40.1 (20161225.0304)
 -->
<!-- Title: Enum Pages: 1 -->
<svg width="121pt" height="188pt"
 viewBox="0.00 0.00 121.00 188.00" xmlns="http://www.w3.org/2000/svg" xmlns:xlink="http://www.w3.org/1999/xlink">
<g id="graph0" class="graph" transform="scale(1 1) rotate(0) translate(4 184)">
<title>Enum</title>
<polygon fill="#ffffff" stroke="transparent" points="-4,4 -4,-184 117,-184 117,4 -4,4"/>
<!-- 0 -->
<g id="node1" class="node">
<title>0</title>
<ellipse fill="none" stroke="#000000" cx="68" cy="-162" rx="27" ry="18"/>
<text text-anchor="middle" x="68" y="-157.8" font-family="Times,serif" font-size="14.00" fill="#000000">0</text>
</g>
<!-- 0&#45;&gt;0 -->
<g id="edge1" class="edge">
<title>0&#45;&gt;0</title>
<path fill="none" stroke="#000000" d="M87.895,-174.4321C100.688,-177.6753 113,-173.5313 113,-162 113,-153.6218 106.5006,-149.1433 98.0395,-148.5644"/>
<polygon fill="#000000" stroke="#000000" points="97.5019,-145.1004 87.895,-149.5679 98.191,-152.0665 97.5019,-145.1004"/>
</g>
<!-- 1 -->
<g id="node2" class="node">
<title>1</title>
<ellipse fill="none" stroke="#000000" cx="27" cy="-90" rx="27" ry="18"/>
<text text-anchor="middle" x="27" y="-85.8" font-family="Times,serif" font-size="14.00" fill="#000000">1</text>
</g>
<!-- 0&#45;&gt;1 -->
<g id="edge2" class="edge">
<title>0&#45;&gt;1</title>
<path fill="none" stroke="#000000" d="M53.669,-146.7307C47.7023,-138.0968 41.104,-127.0499 35.8172,-117.0021"/>
<polygon fill="#000000" stroke="#000000" points="38.8135,-115.1682 31.2137,-107.7862 32.5513,-118.2963 38.8135,-115.1682"/>
</g>
<!-- 2 -->
<g id="node3" class="node">
<title>2</title>
<ellipse fill="none" stroke="#000000" cx="68" cy="-18" rx="27" ry="18"/>
<text text-anchor="middle" x="68" y="-13.8" font-family="Times,serif" font-size="14.00" fill="#000000">2</text>
</g>
<!-- 0&#45;&gt;2 -->
<g id="edge3" class="edge">
<title>0&#45;&gt;2</title>
<path fill="none" stroke="#000000" d="M65.6177,-143.7012C67.3965,-133.3353 70.5681,-120.0653 72,-108 73.8856,-92.1115 73.8856,-87.8885 72,-72 70.9932,-63.5166 69.1264,-54.4376 67.4883,-46.1913"/>
<polygon fill="#000000" stroke="#000000" points="70.9148,-45.4743 65.6177,-36.2988 64.0367,-46.775 70.9148,-45.4743"/>
</g>
<!-- 1&#45;&gt;0 -->
<g id="edge4" class="edge">
<title>1&#45;&gt;0</title>
<path fill="none" stroke="#000000" d="M41.5843,-105.6368C47.5025,-114.2421 54.0115,-125.1606 59.232,-135.0913"/>
<polygon fill="#000000" stroke="#000000" points="56.1824,-136.8189 63.7809,-144.2022 62.4452,-133.6919 56.1824,-136.8189"/>
</g>
<!-- 1&#45;&gt;1 -->
<g id="edge5" class="edge">
<title>1&#45;&gt;1</title>
<path fill="none" stroke="#000000" d="M46.895,-102.4321C59.688,-105.6753 72,-101.5313 72,-90 72,-81.6218 65.5006,-77.1433 57.0395,-76.5644"/>
<polygon fill="#000000" stroke="#000000" points="56.5019,-73.1004 46.895,-77.5679 57.191,-80.0665 56.5019,-73.1004"/>
</g>
<!-- 1&#45;&gt;2 -->
<g id="edge6" class="edge">
<title>1&#45;&gt;2</title>
<path fill="none" stroke="#000000" d="M31.2191,-72.2022C35.4672,-63.1475 41.6439,-52.0078 47.8106,-42.1872"/>
<polygon fill="#000000" stroke="#000000" points="50.8605,-43.9189 53.4157,-33.6368 45.0061,-40.0813 50.8605,-43.9189"/>
</g>
<!-- 2&#45;&gt;0 -->
<g id="edge7" class="edge">
<title>2&#45;&gt;0</title>
<path fill="none" stroke="#000000" d="M80.7151,-34.3605C84.9868,-44.9748 88.4772,-59.1686 90,-72 91.8856,-87.8885 91.8856,-92.1115 90,-108 88.9055,-117.2225 86.7945,-127.1489 84.1075,-135.9442"/>
<polygon fill="#000000" stroke="#000000" points="80.7143,-135.0447 80.7151,-145.6395 87.3215,-137.3566 80.7143,-135.0447"/>
</g>
<!-- 2&#45;&gt;1 -->
<g id="edge8" class="edge">
<title>2&#45;&gt;1</title>
<path fill="none" stroke="#000000" d="M63.7863,-35.7862C59.4925,-44.9402 53.226,-56.2272 46.9909,-66.1284"/>
<polygon fill="#000000" stroke="#000000" points="43.9037,-64.4529 41.331,-74.7307 49.7514,-68.3005 43.9037,-64.4529"/>
</g>
<!-- 2&#45;&gt;2 -->
<g id="edge9" class="edge">
<title>2&#45;&gt;2</title>
<path fill="none" stroke="#000000" d="M87.895,-30.4321C100.688,-33.6753 113,-29.5313 113,-18 113,-9.6218 106.5006,-5.1433 98.0395,-4.5644"/>
<polygon fill="#000000" stroke="#000000" points="97.5019,-1.1004 87.895,-5.5679 98.191,-8.0665 97.5019,-1.1004"/>
</g>
</g>
</svg>
