<?xml version="1.0" encoding="UTF-8" standalone="no"?>
<!DOCTYPE svg PUBLIC "-//W3C//DTD SVG 1.1//EN"
 "http://www.w3.org/Graphics/SVG/1.1/DTD/svg11.dtd">
<!-- Generated by graphviz version 2.40.1 (20161225.0304)
 -->
<!-- Title: Example1 Pages: 1 -->
<svg width="80pt" height="116pt"
 viewBox="0.00 0.00 80.00 116.00" xmlns="http://www.w3.org/2000/svg" xmlns:xlink="http://www.w3.org/1999/xlink">
<g id="graph0" class="graph" transform="scale(1 1) rotate(0) translate(4 112)">
<title>Example1</title>
<polygon fill="#ffffff" stroke="transparent" points="-4,4 -4,-112 76,-112 76,4 -4,4"/>
<!-- 0 -->
<g id="node1" class="node">
<title>0</title>
<ellipse fill="none" stroke="#000000" cx="27" cy="-90" rx="27" ry="18"/>
<text text-anchor="middle" x="27" y="-85.8" font-family="Times,serif" font-size="14.00" fill="#000000">0</text>
</g>
<!-- 0&#45;&gt;0 -->
<g id="edge1" class="edge">
<title>0&#45;&gt;0</title>
<path fill="none" stroke="#000000" d="M46.895,-102.4321C59.688,-105.6753 72,-101.5313 72,-90 72,-81.6218 65.5006,-77.1433 57.0395,-76.5644"/>
<polygon fill="#000000" stroke="#000000" points="56.5019,-73.1004 46.895,-77.5679 57.191,-80.0665 56.5019,-73.1004"/>
</g>
<!-- 1 -->
<g id="node2" class="node">
<title>1</title>
<ellipse fill="none" stroke="#000000" cx="27" cy="-18" rx="27" ry="18"/>
<text text-anchor="middle" x="27" y="-13.8" font-family="Times,serif" font-size="14.00" fill="#000000">1</text>
</g>
<!-- 0&#45;&gt;1 -->
<g id="edge2" class="edge">
<title>0&#45;&gt;1</title>
<path fill="none" stroke="#000000" d="M21.0843,-72.2022C20.2798,-64.1807 20.0571,-54.5231 20.4162,-45.5957"/>
<polygon fill="#000000" stroke="#000000" points="23.9097,-45.8099 21.105,-35.593 16.9262,-45.3289 23.9097,-45.8099"/>
</g>
<!-- 1&#45;&gt;0 -->
<g id="edge3" class="edge">
<title>1&#45;&gt;0</title>
<path fill="none" stroke="#000000" d="M32.895,-35.593C33.7094,-43.5865 33.942,-53.2363 33.5928,-62.1759"/>
<polygon fill="#000000" stroke="#000000" points="30.0976,-61.9891 32.9157,-72.2022 37.0817,-62.4608 30.0976,-61.9891"/>
</g>
<!-- 1&#45;&gt;1 -->
<g id="edge4" class="edge">
<title>1&#45;&gt;1</title>
<path fill="none" stroke="#000000" d="M46.895,-30.4321C59.688,-33.6753 72,-29.5313 72,-18 72,-9.6218 65.5006,-5.1433 57.0395,-4.5644"/>
<polygon fill="#000000" stroke="#000000" points="56.5019,-1.1004 46.895,-5.5679 57.191,-8.0665 56.5019,-1.1004"/>
</g>
</g>
</svg>
